<svg width="195" height="38" viewBox="0 0 195 38" fill="none" xmlns="http://www.w3.org/2000/svg">
<rect width="38" height="38" rx="5" fill="url(#paint0_linear_64_126)" fill-opacity="0.75"/>
<path d="M30.5218 14.6689C30.5092 13.7202 30.3313 12.7809 29.9961 11.8931C29.7055 11.1442 29.2615 10.4641 28.6927 9.89624C28.1238 9.32835 27.4426 8.88516 26.6925 8.59499C25.8146 8.266 24.8872 8.08811 23.9497 8.06889C22.7427 8.01503 22.36 8 19.296 8C16.2321 8 15.8394 8 14.6411 8.06889C13.7041 8.08825 12.7771 8.26614 11.8996 8.59499C11.1494 8.88496 10.468 9.32807 9.89915 9.89599C9.33029 10.4639 8.88643 11.1441 8.59598 11.8931C8.26578 12.7689 8.08798 13.6945 8.07026 14.6301C8.01631 15.8363 8 16.2184 8 19.2773C8 22.3361 8 22.7269 8.07026 23.9244C8.08908 24.8614 8.266 25.7858 8.59598 26.6639C8.88692 27.4127 9.3311 28.0926 9.90016 28.6603C10.4692 29.228 11.1506 29.6709 11.9009 29.9608C12.7759 30.303 13.7031 30.4936 14.6424 30.5245C15.8506 30.5783 16.2333 30.5946 19.2973 30.5946C22.3613 30.5946 22.754 30.5946 23.9522 30.5245C24.8897 30.506 25.8172 30.3285 26.695 29.9996C27.4449 29.7091 28.126 29.2658 28.6948 28.6979C29.2636 28.1301 29.7076 27.4502 29.9986 26.7015C30.3286 25.8247 30.5055 24.9002 30.5243 23.962C30.5783 22.757 30.5946 22.375 30.5946 19.3148C30.5921 16.256 30.5921 15.8677 30.5218 14.6689ZM19.2885 25.0618C16.084 25.0618 13.488 22.4702 13.488 19.271C13.488 16.0718 16.084 13.4802 19.2885 13.4802C20.8269 13.4802 22.3023 14.0903 23.3901 15.1763C24.4779 16.2623 25.089 17.7352 25.089 19.271C25.089 20.8068 24.4779 22.2797 23.3901 23.3657C22.3023 24.4517 20.8269 25.0618 19.2885 25.0618ZM25.3198 14.6163C25.1422 14.6165 24.9662 14.5816 24.802 14.5138C24.6379 14.446 24.4887 14.3466 24.3631 14.2212C24.2374 14.0957 24.1378 13.9468 24.0699 13.7829C24.002 13.619 23.9671 13.4433 23.9673 13.266C23.9673 13.0887 24.0023 12.9132 24.0702 12.7495C24.1381 12.5857 24.2377 12.4369 24.3633 12.3116C24.4888 12.1863 24.6378 12.0869 24.8019 12.019C24.9659 11.9512 25.1417 11.9163 25.3192 11.9163C25.4968 11.9163 25.6726 11.9512 25.8366 12.019C26.0006 12.0869 26.1496 12.1863 26.2752 12.3116C26.4007 12.4369 26.5003 12.5857 26.5682 12.7495C26.6362 12.9132 26.6712 13.0887 26.6712 13.266C26.6712 14.0125 26.0664 14.6163 25.3198 14.6163Z" fill="white"/>
<path d="M19.2884 23.0329C21.3693 23.0329 23.0562 21.3488 23.0562 19.2714C23.0562 17.1939 21.3693 15.5098 19.2884 15.5098C17.2074 15.5098 15.5205 17.1939 15.5205 19.2714C15.5205 21.3488 17.2074 23.0329 19.2884 23.0329Z" fill="white"/>
<path d="M61.4766 9V27H58.6406V9H61.4766ZM67.5938 14.3203V27H64.7578V14.3203H67.5938ZM64.5703 10.9922C64.5703 10.5625 64.7109 10.207 64.9922 9.92578C65.2812 9.63672 65.6797 9.49219 66.1875 9.49219C66.6875 9.49219 67.082 9.63672 67.3711 9.92578C67.6602 10.207 67.8047 10.5625 67.8047 10.9922C67.8047 11.4141 67.6602 11.7656 67.3711 12.0469C67.082 12.3281 66.6875 12.4688 66.1875 12.4688C65.6797 12.4688 65.2812 12.3281 64.9922 12.0469C64.7109 11.7656 64.5703 11.4141 64.5703 10.9922ZM80.4961 24.75V27H71.0508V24.75H80.4961ZM80.2383 16.0781L72.0117 27H70.1836V25.1836L78.3633 14.3203H80.2383V16.0781ZM79.1484 14.3203V16.5703H70.3242V14.3203H79.1484ZM89.9062 24.457V18.4102C89.9062 17.957 89.8242 17.5664 89.6602 17.2383C89.4961 16.9102 89.2461 16.6562 88.9102 16.4766C88.582 16.2969 88.168 16.207 87.668 16.207C87.207 16.207 86.8086 16.2852 86.4727 16.4414C86.1367 16.5977 85.875 16.8086 85.6875 17.0742C85.5 17.3398 85.4062 17.6406 85.4062 17.9766H82.5938C82.5938 17.4766 82.7148 16.9922 82.957 16.5234C83.1992 16.0547 83.5508 15.6367 84.0117 15.2695C84.4727 14.9023 85.0234 14.6133 85.6641 14.4023C86.3047 14.1914 87.0234 14.0859 87.8203 14.0859C88.7734 14.0859 89.6172 14.2461 90.3516 14.5664C91.0938 14.8867 91.6758 15.3711 92.0977 16.0195C92.5273 16.6602 92.7422 17.4648 92.7422 18.4336V24.0703C92.7422 24.6484 92.7812 25.168 92.8594 25.6289C92.9453 26.082 93.0664 26.4766 93.2227 26.8125V27H90.3281C90.1953 26.6953 90.0898 26.3086 90.0117 25.8398C89.9414 25.3633 89.9062 24.9023 89.9062 24.457ZM90.3164 19.2891L90.3398 21.0352H88.3125C87.7891 21.0352 87.3281 21.0859 86.9297 21.1875C86.5312 21.2812 86.1992 21.4219 85.9336 21.6094C85.668 21.7969 85.4688 22.0234 85.3359 22.2891C85.2031 22.5547 85.1367 22.8555 85.1367 23.1914C85.1367 23.5273 85.2148 23.8359 85.3711 24.1172C85.5273 24.3906 85.7539 24.6055 86.0508 24.7617C86.3555 24.918 86.7227 24.9961 87.1523 24.9961C87.7305 24.9961 88.2344 24.8789 88.6641 24.6445C89.1016 24.4023 89.4453 24.1094 89.6953 23.7656C89.9453 23.4141 90.0781 23.082 90.0938 22.7695L91.0078 24.0234C90.9141 24.3438 90.7539 24.6875 90.5273 25.0547C90.3008 25.4219 90.0039 25.7734 89.6367 26.1094C89.2773 26.4375 88.8438 26.707 88.3359 26.918C87.8359 27.1289 87.2578 27.2344 86.6016 27.2344C85.7734 27.2344 85.0352 27.0703 84.3867 26.7422C83.7383 26.4062 83.2305 25.957 82.8633 25.3945C82.4961 24.8242 82.3125 24.1797 82.3125 23.4609C82.3125 22.7891 82.4375 22.1953 82.6875 21.6797C82.9453 21.1562 83.3203 20.7188 83.8125 20.3672C84.3125 20.0156 84.9219 19.75 85.6406 19.5703C86.3594 19.3828 87.1797 19.2891 88.1016 19.2891H90.3164ZM95.8125 25.5938C95.8125 25.1562 95.9609 24.7891 96.2578 24.4922C96.5547 24.1875 96.957 24.0352 97.4648 24.0352C97.9805 24.0352 98.3828 24.1875 98.6719 24.4922C98.9688 24.7891 99.1172 25.1562 99.1172 25.5938C99.1172 26.0312 98.9688 26.3984 98.6719 26.6953C98.3828 26.9922 97.9805 27.1406 97.4648 27.1406C96.957 27.1406 96.5547 26.9922 96.2578 26.6953C95.9609 26.3984 95.8125 26.0312 95.8125 25.5938ZM105.398 14.3203V27H102.562V14.3203H105.398ZM102.375 10.9922C102.375 10.5625 102.516 10.207 102.797 9.92578C103.086 9.63672 103.484 9.49219 103.992 9.49219C104.492 9.49219 104.887 9.63672 105.176 9.92578C105.465 10.207 105.609 10.5625 105.609 10.9922C105.609 11.4141 105.465 11.7656 105.176 12.0469C104.887 12.3281 104.492 12.4688 103.992 12.4688C103.484 12.4688 103.086 12.3281 102.797 12.0469C102.516 11.7656 102.375 11.4141 102.375 10.9922ZM111.293 17.0273V27H108.469V14.3203H111.129L111.293 17.0273ZM110.789 20.1914L109.875 20.1797C109.883 19.2812 110.008 18.457 110.25 17.707C110.5 16.957 110.844 16.3125 111.281 15.7734C111.727 15.2344 112.258 14.8203 112.875 14.5312C113.492 14.2344 114.18 14.0859 114.938 14.0859C115.547 14.0859 116.098 14.1719 116.59 14.3438C117.09 14.5078 117.516 14.7773 117.867 15.1523C118.227 15.5273 118.5 16.0156 118.688 16.6172C118.875 17.2109 118.969 17.9414 118.969 18.8086V27H116.133V18.7969C116.133 18.1875 116.043 17.707 115.863 17.3555C115.691 16.9961 115.438 16.7422 115.102 16.5938C114.773 16.4375 114.363 16.3594 113.871 16.3594C113.387 16.3594 112.953 16.4609 112.57 16.6641C112.188 16.8672 111.863 17.1445 111.598 17.4961C111.34 17.8477 111.141 18.2539 111 18.7148C110.859 19.1758 110.789 19.668 110.789 20.1914ZM121.969 25.5938C121.969 25.1562 122.117 24.7891 122.414 24.4922C122.711 24.1875 123.113 24.0352 123.621 24.0352C124.137 24.0352 124.539 24.1875 124.828 24.4922C125.125 24.7891 125.273 25.1562 125.273 25.5938C125.273 26.0312 125.125 26.3984 124.828 26.6953C124.539 26.9922 124.137 27.1406 123.621 27.1406C123.113 27.1406 122.711 26.9922 122.414 26.6953C122.117 26.3984 121.969 26.0312 121.969 25.5938ZM132.656 24.7617L135.762 14.3203H138.691L134.285 27H132.457L132.656 24.7617ZM130.277 14.3203L133.441 24.8086L133.594 27H131.766L127.336 14.3203H130.277ZM139.711 20.8008V20.5312C139.711 19.6172 139.844 18.7695 140.109 17.9883C140.375 17.1992 140.758 16.5156 141.258 15.9375C141.766 15.3516 142.383 14.8984 143.109 14.5781C143.844 14.25 144.672 14.0859 145.594 14.0859C146.523 14.0859 147.352 14.25 148.078 14.5781C148.812 14.8984 149.434 15.3516 149.941 15.9375C150.449 16.5156 150.836 17.1992 151.102 17.9883C151.367 18.7695 151.5 19.6172 151.5 20.5312V20.8008C151.5 21.7148 151.367 22.5625 151.102 23.3438C150.836 24.125 150.449 24.8086 149.941 25.3945C149.434 25.9727 148.816 26.4258 148.09 26.7539C147.363 27.0742 146.539 27.2344 145.617 27.2344C144.688 27.2344 143.855 27.0742 143.121 26.7539C142.395 26.4258 141.777 25.9727 141.27 25.3945C140.762 24.8086 140.375 24.125 140.109 23.3438C139.844 22.5625 139.711 21.7148 139.711 20.8008ZM142.535 20.5312V20.8008C142.535 21.3711 142.594 21.9102 142.711 22.418C142.828 22.9258 143.012 23.3711 143.262 23.7539C143.512 24.1367 143.832 24.4375 144.223 24.6562C144.613 24.875 145.078 24.9844 145.617 24.9844C146.141 24.9844 146.594 24.875 146.977 24.6562C147.367 24.4375 147.688 24.1367 147.938 23.7539C148.188 23.3711 148.371 22.9258 148.488 22.418C148.613 21.9102 148.676 21.3711 148.676 20.8008V20.5312C148.676 19.9688 148.613 19.4375 148.488 18.9375C148.371 18.4297 148.184 17.9805 147.926 17.5898C147.676 17.1992 147.355 16.8945 146.965 16.6758C146.582 16.4492 146.125 16.3359 145.594 16.3359C145.062 16.3359 144.602 16.4492 144.211 16.6758C143.828 16.8945 143.512 17.1992 143.262 17.5898C143.012 17.9805 142.828 18.4297 142.711 18.9375C142.594 19.4375 142.535 19.9688 142.535 20.5312ZM156.703 16.7344V27H153.879V14.3203H156.574L156.703 16.7344ZM160.582 14.2383L160.559 16.8633C160.387 16.832 160.199 16.8086 159.996 16.793C159.801 16.7773 159.605 16.7695 159.41 16.7695C158.926 16.7695 158.5 16.8398 158.133 16.9805C157.766 17.1133 157.457 17.3086 157.207 17.5664C156.965 17.8164 156.777 18.1211 156.645 18.4805C156.512 18.8398 156.434 19.2422 156.41 19.6875L155.766 19.7344C155.766 18.9375 155.844 18.1992 156 17.5195C156.156 16.8398 156.391 16.2422 156.703 15.7266C157.023 15.2109 157.422 14.8086 157.898 14.5195C158.383 14.2305 158.941 14.0859 159.574 14.0859C159.746 14.0859 159.93 14.1016 160.125 14.1328C160.328 14.1641 160.48 14.1992 160.582 14.2383ZM168.75 14.3203V16.3828H161.602V14.3203H168.75ZM163.664 11.2148H166.488V23.4961C166.488 23.8867 166.543 24.1875 166.652 24.3984C166.77 24.6016 166.93 24.7383 167.133 24.8086C167.336 24.8789 167.574 24.9141 167.848 24.9141C168.043 24.9141 168.23 24.9023 168.41 24.8789C168.59 24.8555 168.734 24.832 168.844 24.8086L168.855 26.9648C168.621 27.0352 168.348 27.0977 168.035 27.1523C167.73 27.207 167.379 27.2344 166.98 27.2344C166.332 27.2344 165.758 27.1211 165.258 26.8945C164.758 26.6602 164.367 26.2812 164.086 25.7578C163.805 25.2344 163.664 24.5391 163.664 23.6719V11.2148ZM176.52 27.2344C175.582 27.2344 174.734 27.082 173.977 26.7773C173.227 26.4648 172.586 26.0312 172.055 25.4766C171.531 24.9219 171.129 24.2695 170.848 23.5195C170.566 22.7695 170.426 21.9609 170.426 21.0938V20.625C170.426 19.6328 170.57 18.7344 170.859 17.9297C171.148 17.125 171.551 16.4375 172.066 15.8672C172.582 15.2891 173.191 14.8477 173.895 14.543C174.598 14.2383 175.359 14.0859 176.18 14.0859C177.086 14.0859 177.879 14.2383 178.559 14.543C179.238 14.8477 179.801 15.2773 180.246 15.832C180.699 16.3789 181.035 17.0312 181.254 17.7891C181.48 18.5469 181.594 19.3828 181.594 20.2969V21.5039H171.797V19.4766H178.805V19.2539C178.789 18.7461 178.688 18.2695 178.5 17.8242C178.32 17.3789 178.043 17.0195 177.668 16.7461C177.293 16.4727 176.793 16.3359 176.168 16.3359C175.699 16.3359 175.281 16.4375 174.914 16.6406C174.555 16.8359 174.254 17.1211 174.012 17.4961C173.77 17.8711 173.582 18.3242 173.449 18.8555C173.324 19.3789 173.262 19.9688 173.262 20.625V21.0938C173.262 21.6484 173.336 22.1641 173.484 22.6406C173.641 23.1094 173.867 23.5195 174.164 23.8711C174.461 24.2227 174.82 24.5 175.242 24.7031C175.664 24.8984 176.145 24.9961 176.684 24.9961C177.363 24.9961 177.969 24.8594 178.5 24.5859C179.031 24.3125 179.492 23.9258 179.883 23.4258L181.371 24.8672C181.098 25.2656 180.742 25.6484 180.305 26.0156C179.867 26.375 179.332 26.668 178.699 26.8945C178.074 27.1211 177.348 27.2344 176.52 27.2344ZM185.953 14.3203L188.367 18.5273L190.828 14.3203H193.934L190.09 20.543L194.086 27H190.98L188.402 22.6172L185.824 27H182.707L186.691 20.543L182.859 14.3203H185.953Z" fill="white"/>
<defs>
<linearGradient id="paint0_linear_64_126" x1="38" y1="19" x2="-18.5" y2="19" gradientUnits="userSpaceOnUse">
<stop stop-color="#FFCC80"/>
<stop offset="1" stop-color="#A201FC"/>
</linearGradient>
</defs>
</svg>

